<?xml version="1.0" encoding="UTF-8" standalone="no"?>
<svg width="225px" height="256px" viewBox="0 0 225 256" version="1.1" xmlns="http://www.w3.org/2000/svg" xmlns:xlink="http://www.w3.org/1999/xlink">
    <!-- Generator: Sketch 39 (31667) - http://www.bohemiancoding.com/sketch -->
    <title>Logo</title>
    <desc>Created with Sketch.</desc>
    <defs>
        <radialGradient cx="50%" cy="0%" fx="50%" fy="0%" r="100%" id="radialGradient-1">
            <stop stop-color="#000000" offset="0%"></stop>
            <stop stop-color="#000000" stop-opacity="0.5" offset="100%"></stop>
        </radialGradient>
        <rect id="path-2" x="0" y="-7.10542736e-15" width="214" height="127.315789" rx="8"></rect>
    </defs>
    <g id="Page-2" stroke="none" stroke-width="1" fill="none" fill-rule="evenodd">
        <g id="Artboard" transform="translate(-16.000000, 0.000000)">
            <g id="Logo" transform="translate(21.000000, 5.000000)">
                <g id="Markdown-Logo">
                    <g id="Rectangle-path">
                        <use fill="#000000" xlink:href="#path-2"></use>
                        <use stroke="#000000" stroke-width="10" fill="url(#radialGradient-1)" xlink:href="#path-2"></use>
                    </g>
                    <path d="M27.020202,100.342105 L27.020202,26.9736842 L48.6363636,26.9736842 L70.2525253,53.9473684 L91.8686869,26.9736842 L113.484848,26.9736842 L113.484848,100.342105 L91.8686869,100.342105 L91.8686869,58.2631579 L70.2525253,85.2368421 L48.6363636,58.2631579 L48.6363636,100.342105 L27.020202,100.342105 Z M162.121212,100.342105 L129.69697,64.7368421 L151.313131,64.7368421 L151.313131,26.9736842 L172.929293,26.9736842 L172.929293,64.7368421 L194.545455,64.7368421 L162.121212,100.342105 Z" id="Shape" fill="#FFFFFF"></path>
                </g>
                <g id="Server" transform="translate(0.000000, 130.552632)">
                    <rect id="Server-Shape" stroke="#000000" stroke-width="10" fill="#FFFFFF" x="0" y="17.2631579" width="214" height="44.2368421" rx="8"></rect>
                    <rect id="Light-1" fill="#000000" x="17.2929293" y="33.4473684" width="24.8585859" height="12.4078947"></rect>
                    <rect id="Light-2" fill="#000000" x="52.959596" y="33.4473684" width="24.8585859" height="12.4078947"></rect>
                    <rect id="Light-3" fill="#000000" x="88.6262626" y="33.4473684" width="24.8585859" height="12.4078947"></rect>
                    <rect id="Light-4" fill="#000000" x="124.292929" y="33.4473684" width="72.4141414" height="12.4078947"></rect>
                    <path d="M103.757576,0 L103.757576,8.63157895" id="Connector" stroke="#0B0B0B" stroke-width="12" stroke-linecap="square"></path>
                </g>
                <g id="Network" transform="translate(1.080808, 193.131579)">
                    <path d="M103.757576,0 L103.757576,10.7894737" id="Connector" stroke="#0B0B0B" stroke-width="12" stroke-linecap="square"></path>
                    <path d="M0,34.5263158 L212.014764,34.5263158" id="Horiz-Wire" stroke="#0B0B0B" stroke-width="12" stroke-linecap="square"></path>
                    <rect id="Node" stroke="#000000" stroke-width="10" fill="#000000" x="86.4646465" y="18.3421053" width="34.5858586" height="34.5263158" rx="4"></rect>
                </g>
            </g>
        </g>
    </g>
</svg>